<svg width="608" height="274" viewBox="0 0 608 274" fill="none" xmlns="http://www.w3.org/2000/svg">
<path opacity="0.2" d="M292.94 -131.82C315.686 -106.246 315.686 -64.7718 292.94 -39.1808L39.4546 245.82C16.7086 271.393 -20.1793 271.393 -42.9405 245.82C-65.6865 220.246 -65.6865 178.772 -42.9405 153.181L210.545 -131.82C233.307 -157.393 270.194 -157.393 292.94 -131.82Z" fill="white"/>
<path opacity="0.2" d="M561.645 -93.5451C584.785 -68.9387 584.785 -29.0613 561.645 -4.45483L317.133 255.545C293.994 280.152 256.494 280.152 233.355 255.545C210.215 230.939 210.215 191.061 233.355 166.455L477.853 -93.5451C500.992 -118.152 538.506 -118.152 561.645 -93.5451Z" fill="white"/>
<path opacity="0.2" d="M597.869 40.1185C611.377 53.6274 611.377 75.5181 597.869 89.0095L462.019 224.868C448.511 238.377 426.622 238.377 413.131 224.868C399.623 211.359 399.623 189.469 413.131 175.977L548.981 40.1185C562.489 26.6272 584.378 26.6272 597.869 40.1185Z" fill="white"/>
</svg>
